<svg width="121" height="42" viewBox="0 0 121 42" fill="none" xmlns="http://www.w3.org/2000/svg">
<path fill-rule="evenodd" clip-rule="evenodd" d="M120.508 18.5411C119.706 11.511 115.853 5.53867 109.972 2.38498C106.815 0.69315 103.261 0.0295659 99.6637 0H60.5381C63.291 0.515761 66.8849 0.657015 69.4769 1.36988C71.6465 1.92618 73.6422 3.0172 75.2816 4.54329C77.8111 6.9447 79.2237 10.3842 79.2237 14.5037C79.2237 18.7119 77.7684 22.1974 75.1634 24.6251C72.5583 27.0528 68.7443 28.4523 64.0761 28.4523H53.4127V41.3266L49.8878 41.9836H99.0362C103.908 41.9245 107.367 41.2773 111.191 39.142C114.592 37.2439 117.389 34.4246 119.259 31.0081L109.792 28.3077C108.956 29.6661 107.829 30.8218 106.493 31.6911C105.156 32.5604 103.642 33.1216 102.062 33.3339C100.825 33.5027 99.5706 33.4839 98.3398 33.2781C94.217 32.4962 90.4095 28.7216 90.0744 24.4773H120.649C120.813 22.4953 120.773 20.5018 120.531 18.528L120.508 18.5411ZM90.5179 16.3861C91.8714 11.1135 95.4456 8.61024 99.5585 8.50183C99.887 8.50183 100.245 8.50183 100.583 8.50183C104.69 8.62995 108.225 11.1299 109.571 16.3861H90.5179Z" fill="url(#paint0_linear_312_2692)"/>
<path d="M20.9754 27.7065L12.2468 42H0L13.1864 20.9392L0.128124 0H12.3717L20.9754 14.1686L29.6382 0H41.885L28.8235 20.9392L42.0099 42H29.7663L20.9754 27.7065Z" fill="#070707"/>
<path d="M64.5217 0C74.0025 0 79.9617 5.83105 79.9617 14.4807C79.9617 23.3209 73.8087 29.1487 64.0749 29.1487H54.1539V42H43.7927V0H64.5217ZM63.326 20.3972C67.3469 20.3972 69.7943 18.0976 69.7943 14.5333C69.7943 11.1661 67.3469 8.79421 63.326 8.79421H54.1539V20.3972H63.326Z" fill="#070707"/>
<defs>
<linearGradient id="paint0_linear_312_2692" x1="71.3969" y1="21" x2="120.747" y2="21" gradientUnits="userSpaceOnUse">
<stop offset="0.269481" stop-color="#7DDD00"/>
<stop offset="0.817428" stop-color="#AEDA00"/>
</linearGradient>
</defs>
</svg>
